<svg width="17" height="20" viewBox="0 0 17 20" fill="none" xmlns="http://www.w3.org/2000/svg">
<path d="M7.62379 1.59312C8.00371 0.902344 8.99629 0.902345 9.37622 1.59312L13.1849 8.51808C13.5515 9.18454 13.0693 10 12.3087 10H4.69127C3.93067 10 3.44851 9.18453 3.81506 8.51808L7.62379 1.59312Z" fill="#D65180"/>
<path d="M1.352 19V18.744L2.608 18.624H2.92L4.208 18.744V19H1.352ZM2.184 19C2.208 18.104 2.208 17.168 2.208 16.232V15.856C2.208 14.92 2.208 14 2.184 13.08H3.368C3.344 13.984 3.344 14.92 3.344 15.856V16.232C3.344 17.152 3.344 18.08 3.368 19H2.184ZM0.176 14.736L0.224 13.08H5.336L5.376 14.736H4.96L4.528 13.08L5.064 13.384H0.48L1.024 13.08L0.608 14.736H0.176ZM8.47694 19.152C7.00494 19.152 5.71694 18.072 5.71694 16.04C5.71694 14.032 7.00494 12.928 8.47694 12.928C9.95694 12.928 11.2369 14.016 11.2369 16.04C11.2369 18.056 9.96494 19.152 8.47694 19.152ZM8.47694 18.856C9.54094 18.856 10.0449 17.64 10.0449 16.04C10.0449 14.448 9.54094 13.224 8.47694 13.224C7.42094 13.224 6.90894 14.448 6.90894 16.04C6.90894 17.64 7.42094 18.856 8.47694 18.856ZM11.745 19V18.744L12.969 18.624H13.289L14.537 18.744V19H11.745ZM12.489 19C12.513 18.104 12.513 17.168 12.513 16.232V15.856C12.513 14.92 12.513 14 12.489 13.08H13.673C13.649 13.984 13.649 14.92 13.649 15.856V16.416C13.649 17.176 13.649 18.08 13.673 19H12.489ZM13.081 16.616V16.328H13.985C15.009 16.328 15.465 15.712 15.465 14.824C15.465 13.864 15.001 13.368 14.089 13.368H13.081V13.08H14.113C15.817 13.08 16.537 13.728 16.537 14.824C16.537 15.824 15.841 16.616 14.017 16.616H13.081ZM11.745 13.344V13.08H13.081V13.448H12.969L11.745 13.344Z" fill="#D65180"/>
</svg>
